<?xml version="1.0" encoding="UTF-8"?>
<svg width="36px" height="36px" viewBox="0 0 36 36" version="1.1" xmlns="http://www.w3.org/2000/svg" xmlns:xlink="http://www.w3.org/1999/xlink">
    <!-- Generator: Sketch 61.1 (89650) - https://sketch.com -->
    <title>github4s</title>
    <desc>Created with Sketch.</desc>
    <g id="github4s" stroke="none" stroke-width="1" fill="none" fill-rule="evenodd" stroke-linejoin="round">
        <path d="M10.7398626,18.676068 C10.1245254,18.2366937 9.60939789,17.7271808 9.18951099,17.1451106 C8.77459317,16.5646529 8.42758605,15.810864 8.14931782,14.8869687 C7.87436229,13.9582362 7.73771271,12.9134123 7.73771271,11.7549153 C7.73771271,9.96275193 8.34062723,8.4382441 9.52657996,7.18381036 C9.52657996,7.07900548 9.39158674,6.49209818 9.51415727,5.30054737 C9.61436697,4.10657799 9.87524344,3.0061268 10.3009276,2 C11.785853,2.15317636 13.6244111,2.97387915 15.8207425,4.44759693 C16.5611348,4.26297911 17.5715135,4.16462377 18.8684423,4.16462377 C20.2233436,4.16462377 21.2395196,4.26297911 21.9186266,4.44920931 C22.9190671,3.79135717 23.874786,3.25523993 24.789096,2.8481133 C25.7174849,2.44421143 26.3866538,2.2047726 26.8065407,2.14108349 L27.4359569,2.00161238 C27.865782,3.0061268 28.1266585,4.10657799 28.2252118,5.30215976 C28.346126,6.49209818 28.2103046,7.06530023 28.2103046,7.18381036 C29.3970855,8.43985648 30,9.96275193 30,11.7549153 C30,12.9134123 29.8625222,13.9582362 29.5875667,14.8869687 C29.3092985,15.810864 28.9614632,16.5646529 28.5482017,17.1451106 C28.1283148,17.7271808 27.6131873,18.2366937 26.9986783,18.676068 C26.3849974,19.1186671 25.8210073,19.4371126 25.3058798,19.6402729 L10.4640789,22.3418201 C8.95844897,22.3418201 7.73771271,23.5301461 7.73771271,24.995802 C7.73771271,26.462264 8.95844897,27.6505901 10.4640789,27.6505901 L27.2454757,25.232016 C28.7511056,25.232016 29.9718419,26.4203421 29.9718419,27.885998 C29.9718419,29.35246 28.7511056,30.5407861 27.2454757,30.5408659 L7,34" id="Icon-Copy" stroke="#FF9900" stroke-width="2.0960975"></path>
    </g>
</svg>